<svg width="22" height="18" viewBox="0 0 22 18" fill="none" xmlns="http://www.w3.org/2000/svg">
<path d="M13 6.59643V4.69576C13.55 4.43489 14.1125 4.23923 14.6875 4.10879C15.2625 3.97835 15.8667 3.91313 16.5 3.91313C16.9333 3.91313 17.3583 3.9504 17.775 4.02494C18.1917 4.09947 18.6 4.19264 19 4.30445V6.09331C18.6 5.9256 18.1958 5.79982 17.7875 5.71597C17.3792 5.63212 16.95 5.59019 16.5 5.59019C15.8667 5.59019 15.2583 5.6787 14.675 5.85573C14.0917 6.03275 13.5333 6.27965 13 6.59643ZM13 12.7456V10.845C13.55 10.5841 14.1125 10.3884 14.6875 10.258C15.2625 10.1276 15.8667 10.0623 16.5 10.0623C16.9333 10.0623 17.3583 10.0996 17.775 10.1741C18.1917 10.2487 18.6 10.3419 19 10.4537V12.2425C18.6 12.0748 18.1958 11.949 17.7875 11.8652C17.3792 11.7813 16.95 11.7394 16.5 11.7394C15.8667 11.7394 15.2583 11.8233 14.675 11.991C14.0917 12.1587 13.5333 12.4102 13 12.7456ZM13 9.67103V7.77037C13.55 7.50949 14.1125 7.31383 14.6875 7.1834C15.2625 7.05296 15.8667 6.98774 16.5 6.98774C16.9333 6.98774 17.3583 7.02501 17.775 7.09954C18.1917 7.17408 18.6 7.26725 19 7.37905V9.16792C18.6 9.00021 18.1958 8.87443 17.7875 8.79058C17.3792 8.70672 16.95 8.6648 16.5 8.6648C15.8667 8.6648 15.2583 8.75331 14.675 8.93033C14.0917 9.10736 13.5333 9.35425 13 9.67103ZM5.5 13.4165C6.28333 13.4165 7.04583 13.5143 7.7875 13.7099C8.52917 13.9056 9.26667 14.1991 10 14.5904V3.57772C9.31667 3.13051 8.59167 2.7951 7.825 2.57149C7.05833 2.34788 6.28333 2.23608 5.5 2.23608C4.9 2.23608 4.30417 2.3013 3.7125 2.43173C3.12083 2.56217 2.55 2.75783 2 3.0187V14.0873C2.58333 13.8637 3.1625 13.696 3.7375 13.5842C4.3125 13.4724 4.9 13.4165 5.5 13.4165ZM12 14.5904C12.7333 14.1991 13.4708 13.9056 14.2125 13.7099C14.9542 13.5143 15.7167 13.4165 16.5 13.4165C17.1 13.4165 17.6875 13.4724 18.2625 13.5842C18.8375 13.696 19.4167 13.8637 20 14.0873V3.0187C19.45 2.75783 18.8792 2.56217 18.2875 2.43173C17.6958 2.3013 17.1 2.23608 16.5 2.23608C15.7167 2.23608 14.9417 2.34788 14.175 2.57149C13.4083 2.7951 12.6833 3.13051 12 3.57772V14.5904ZM11 17.8886C10.2 17.1805 9.33333 16.6308 8.4 16.2395C7.46667 15.8482 6.5 15.6525 5.5 15.6525C4.8 15.6525 4.1125 15.755 3.4375 15.96C2.7625 16.165 2.11667 16.4538 1.5 16.8265C1.15 17.0315 0.8125 17.0221 0.4875 16.7985C0.1625 16.5749 0 16.2488 0 15.8202V2.34788C0 2.14291 0.0458333 1.94725 0.1375 1.76091C0.229167 1.57457 0.366667 1.43482 0.55 1.34165C1.31667 0.894431 2.11667 0.559019 2.95 0.335412C3.78333 0.111804 4.63333 0 5.5 0C6.46667 0 7.4125 0.139755 8.3375 0.419264C9.2625 0.698774 10.15 1.11804 11 1.67706C11.85 1.11804 12.7375 0.698774 13.6625 0.419264C14.5875 0.139755 15.5333 0 16.5 0C17.3667 0 18.2167 0.111804 19.05 0.335412C19.8833 0.559019 20.6833 0.894431 21.45 1.34165C21.6333 1.43482 21.7708 1.57457 21.8625 1.76091C21.9542 1.94725 22 2.14291 22 2.34788V15.8202C22 16.2488 21.8375 16.5749 21.5125 16.7985C21.1875 17.0221 20.85 17.0315 20.5 16.8265C19.8833 16.4538 19.2375 16.165 18.5625 15.96C17.8875 15.755 17.2 15.6525 16.5 15.6525C15.5 15.6525 14.5333 15.8482 13.6 16.2395C12.6667 16.6308 11.8 17.1805 11 17.8886Z" fill="url(#paint0_linear_2_237)"/>
<defs>
<linearGradient id="paint0_linear_2_237" x1="11" y1="0" x2="11" y2="17.8886" gradientUnits="userSpaceOnUse">
<stop stop-color="#811ECF"/>
<stop offset="1" stop-color="#F036E9"/>
</linearGradient>
</defs>
</svg>
