<svg width="23" height="23" viewBox="0 0 23 23" fill="none" xmlns="http://www.w3.org/2000/svg">
<path d="M10.9 22.3608L15.45 8.94431H17.55L22.1 22.3608H20L18.925 18.9507H14.075L13 22.3608H10.9ZM3 19.0066L1.6 17.4414L6.65 11.7953C6.06667 11.1431 5.5375 10.3978 5.0625 9.55923C4.5875 8.7207 4.15 7.77037 3.75 6.70823H5.85C6.18333 7.43495 6.51667 8.06851 6.85 8.60889C7.18333 9.14928 7.58333 9.68966 8.05 10.23C8.6 9.61513 9.17083 8.75331 9.7625 7.64459C10.3542 6.53586 10.8 5.47839 11.1 4.47215H0V2.23608H7V0H9V2.23608H16V4.47215H13.1C12.75 5.8138 12.225 7.19271 11.525 8.60889C10.825 10.0251 10.1333 11.1058 9.45 11.8512L11.85 14.5904L11.1 16.8824L8.05 13.3885L3 19.0066ZM14.7 16.9942H18.3L16.5 11.2922L14.7 16.9942Z" fill="url(#paint0_linear_2_239)"/>
<defs>
<linearGradient id="paint0_linear_2_239" x1="11.05" y1="0" x2="11.05" y2="22.3608" gradientUnits="userSpaceOnUse">
<stop stop-color="#811ECF"/>
<stop offset="1" stop-color="#F036E9"/>
</linearGradient>
</defs>
</svg>
