<svg width="289" height="47" viewBox="0 0 289 47" fill="none" xmlns="http://www.w3.org/2000/svg">
<path d="M15.464 4.01599C21.768 4.01599 26.456 5.45599 29.528 8.33599C32.6 11.184 34.136 15.28 34.136 20.624C34.136 24.112 33.384 27.168 31.88 29.792C30.376 32.384 28.184 34.4 25.304 35.84C22.456 37.28 19.032 38 15.032 38C14.52 38 13.848 37.984 13.016 37.952C12.184 37.92 11.32 37.904 10.424 37.904C9.52802 37.872 8.72802 37.856 8.02402 37.856C6.61602 37.856 5.22402 37.872 3.84802 37.904C2.50402 37.904 1.43202 37.936 0.632019 38V37.04C1.65602 36.976 2.42402 36.848 2.93602 36.656C3.44802 36.464 3.78402 36.08 3.94402 35.504C4.13602 34.928 4.23202 34.064 4.23202 32.912V9.10398C4.23202 7.91998 4.13602 7.05599 3.94402 6.51199C3.78402 5.93599 3.43202 5.55199 2.88802 5.35999C2.37602 5.13599 1.62402 5.00799 0.632019 4.97599V4.01599C1.43202 4.04799 2.50402 4.09599 3.84802 4.15999C5.22402 4.19199 6.58402 4.19199 7.92802 4.15999C9.08002 4.12799 10.376 4.09599 11.816 4.06399C13.288 4.03199 14.504 4.01599 15.464 4.01599ZM15.416 4.87998C13.944 4.87998 12.984 5.15199 12.536 5.69599C12.088 6.23999 11.864 7.34399 11.864 9.00799V33.008C11.864 34.672 12.088 35.776 12.536 36.32C13.016 36.864 13.992 37.136 15.464 37.136C18.152 37.136 20.264 36.512 21.8 35.264C23.368 33.984 24.488 32.128 25.16 29.696C25.832 27.264 26.168 24.304 26.168 20.816C26.168 17.232 25.8 14.272 25.064 11.936C24.36 9.56799 23.224 7.80799 21.656 6.65598C20.088 5.47198 18.008 4.87998 15.416 4.87998Z" fill="#141414"/>
<path d="M43.7135 38.336C42.2735 38.336 41.0735 38.064 40.1135 37.52C39.1535 36.976 38.4495 36.256 38.0015 35.36C37.5535 34.432 37.3295 33.424 37.3295 32.336C37.3295 30.96 37.6335 29.84 38.2415 28.976C38.8815 28.112 39.6975 27.408 40.6895 26.864C41.6815 26.32 42.7215 25.872 43.8095 25.52C44.9295 25.168 45.9855 24.832 46.9775 24.512C48.0015 24.16 48.8175 23.76 49.4255 23.312C50.0655 22.832 50.3855 22.224 50.3855 21.488V17.744C50.3855 16.912 50.2415 16.176 49.9535 15.536C49.6975 14.864 49.2815 14.352 48.7055 14C48.1615 13.648 47.4415 13.472 46.5455 13.472C45.9055 13.472 45.2655 13.568 44.6255 13.76C43.9855 13.92 43.4575 14.208 43.0415 14.624C43.9375 14.944 44.6255 15.44 45.1055 16.112C45.6175 16.752 45.8735 17.488 45.8735 18.32C45.8735 19.408 45.4895 20.272 44.7215 20.912C43.9855 21.552 43.1055 21.872 42.0815 21.872C40.9295 21.872 40.0495 21.52 39.4415 20.816C38.8655 20.08 38.5775 19.2 38.5775 18.176C38.5775 17.248 38.8015 16.48 39.2495 15.872C39.7295 15.264 40.3855 14.688 41.2175 14.144C42.1135 13.632 43.1855 13.232 44.4335 12.944C45.7135 12.656 47.0895 12.512 48.5615 12.512C50.0335 12.512 51.3615 12.672 52.5455 12.992C53.7295 13.28 54.7215 13.824 55.5215 14.624C56.2575 15.36 56.7375 16.272 56.9615 17.36C57.1855 18.416 57.2975 19.76 57.2975 21.392V34.448C57.2975 35.248 57.3775 35.808 57.5375 36.128C57.6975 36.416 57.9695 36.56 58.3535 36.56C58.6415 36.56 58.9135 36.48 59.1695 36.32C59.4575 36.16 59.7615 35.968 60.0815 35.744L60.5615 36.56C59.8895 37.136 59.1055 37.584 58.2095 37.904C57.3455 38.192 56.3695 38.336 55.2815 38.336C54.0975 38.336 53.1535 38.176 52.4495 37.856C51.7455 37.504 51.2335 37.04 50.9135 36.464C50.6255 35.888 50.4815 35.216 50.4815 34.448C49.7135 35.664 48.7855 36.624 47.6975 37.328C46.6095 38 45.2815 38.336 43.7135 38.336ZM47.1215 35.264C47.7615 35.264 48.3375 35.12 48.8495 34.832C49.3935 34.512 49.9055 34 50.3855 33.296V23.456C50.0975 23.936 49.6975 24.368 49.1855 24.752C48.6735 25.136 48.1295 25.536 47.5535 25.952C46.9775 26.336 46.4175 26.768 45.8735 27.248C45.3615 27.728 44.9455 28.32 44.6255 29.024C44.3055 29.728 44.1455 30.576 44.1455 31.568C44.1455 32.816 44.4175 33.744 44.9615 34.352C45.5055 34.96 46.2255 35.264 47.1215 35.264Z" fill="#141414"/>
<path d="M79.7893 12.512C81.1333 12.512 82.2213 12.688 83.0533 13.04C83.9173 13.36 84.5893 13.808 85.0693 14.384C85.5813 14.992 85.9493 15.776 86.1733 16.736C86.4293 17.696 86.5573 18.992 86.5573 20.624V33.536C86.5573 34.88 86.7813 35.792 87.2293 36.272C87.7093 36.752 88.5093 36.992 89.6293 36.992V38C89.0213 37.968 88.1093 37.936 86.8933 37.904C85.6773 37.84 84.4773 37.808 83.2933 37.808C82.0773 37.808 80.8773 37.84 79.6933 37.904C78.5413 37.936 77.6613 37.968 77.0533 38V36.992C78.0133 36.992 78.6853 36.752 79.0693 36.272C79.4533 35.792 79.6453 34.88 79.6453 33.536V18.608C79.6453 17.808 79.5653 17.12 79.4053 16.544C79.2453 15.936 78.9573 15.472 78.5413 15.152C78.1253 14.8 77.5013 14.624 76.6693 14.624C75.8053 14.624 75.0053 14.864 74.2693 15.344C73.5653 15.824 72.9893 16.496 72.5413 17.36C72.1253 18.192 71.9173 19.136 71.9173 20.192V33.536C71.9173 34.88 72.1093 35.792 72.4933 36.272C72.9093 36.752 73.5813 36.992 74.5093 36.992V38C73.9333 37.968 73.0853 37.936 71.9653 37.904C70.8773 37.84 69.7413 37.808 68.5573 37.808C67.3413 37.808 66.0933 37.84 64.8133 37.904C63.5333 37.936 62.5733 37.968 61.9333 38V36.992C63.0533 36.992 63.8373 36.752 64.2853 36.272C64.7653 35.792 65.0053 34.88 65.0053 33.536V18.416C65.0053 16.976 64.7813 15.92 64.3333 15.248C63.9173 14.544 63.1173 14.192 61.9333 14.192V13.184C62.9573 13.28 63.9493 13.328 64.9093 13.328C66.2533 13.328 67.5013 13.28 68.6533 13.184C69.8373 13.056 70.9253 12.88 71.9173 12.656V16.976C72.7173 15.344 73.8053 14.192 75.1813 13.52C76.5573 12.848 78.0933 12.512 79.7893 12.512Z" fill="#141414"/>
<path d="M97.6576 0.799986C99.0016 0.799986 100.058 1.13599 100.826 1.80799C101.626 2.44799 102.026 3.34399 102.026 4.49599C102.026 5.64799 101.626 6.55999 100.826 7.23199C100.058 7.87199 99.0016 8.19199 97.6576 8.19199C96.3136 8.19199 95.2416 7.87199 94.4416 7.23199C93.6736 6.55999 93.2896 5.64799 93.2896 4.49599C93.2896 3.34399 93.6736 2.44799 94.4416 1.80799C95.2416 1.13599 96.3136 0.799986 97.6576 0.799986ZM101.402 12.656V33.536C101.402 34.88 101.626 35.792 102.074 36.272C102.554 36.752 103.354 36.992 104.474 36.992V38C103.898 37.968 103.002 37.936 101.786 37.904C100.57 37.84 99.3376 37.808 98.0896 37.808C96.8416 37.808 95.5776 37.84 94.2976 37.904C93.0176 37.936 92.0576 37.968 91.4176 38V36.992C92.5376 36.992 93.3216 36.752 93.7696 36.272C94.2496 35.792 94.4896 34.88 94.4896 33.536V18.416C94.4896 16.976 94.2656 15.92 93.8176 15.248C93.4016 14.544 92.6016 14.192 91.4176 14.192V13.184C92.4416 13.28 93.4336 13.328 94.3936 13.328C95.7376 13.328 96.9856 13.28 98.1376 13.184C99.3216 13.056 100.41 12.88 101.402 12.656Z" fill="#141414"/>
<path d="M116.35 0.415985V33.536C116.35 34.88 116.574 35.792 117.022 36.272C117.502 36.752 118.302 36.992 119.422 36.992V38C118.814 37.968 117.902 37.936 116.686 37.904C115.47 37.84 114.238 37.808 112.99 37.808C111.742 37.808 110.478 37.84 109.198 37.904C107.95 37.936 107.006 37.968 106.366 38V36.992C107.486 36.992 108.27 36.752 108.718 36.272C109.198 35.792 109.438 34.88 109.438 33.536V6.17599C109.438 4.73599 109.214 3.67999 108.766 3.00799C108.35 2.30399 107.55 1.95199 106.366 1.95199V0.943987C107.39 1.03999 108.382 1.08799 109.342 1.08799C110.654 1.08799 111.902 1.03999 113.086 0.943987C114.27 0.815987 115.358 0.639986 116.35 0.415985Z" fill="#141414"/>
<path d="M133.38 12.512C135.716 12.512 137.764 12.944 139.524 13.808C141.284 14.672 142.66 16.064 143.652 17.984C144.644 19.904 145.14 22.448 145.14 25.616C145.14 28.784 144.644 31.328 143.652 33.248C142.66 35.136 141.284 36.512 139.524 37.376C137.764 38.24 135.716 38.672 133.38 38.672C131.108 38.672 129.076 38.24 127.284 37.376C125.524 36.512 124.132 35.136 123.108 33.248C122.116 31.328 121.62 28.784 121.62 25.616C121.62 22.448 122.116 19.904 123.108 17.984C124.132 16.064 125.524 14.672 127.284 13.808C129.076 12.944 131.108 12.512 133.38 12.512ZM133.38 13.472C132.1 13.472 131.028 14.432 130.164 16.352C129.3 18.24 128.868 21.328 128.868 25.616C128.868 29.904 129.3 32.992 130.164 34.88C131.028 36.768 132.1 37.712 133.38 37.712C134.692 37.712 135.764 36.768 136.596 34.88C137.46 32.992 137.892 29.904 137.892 25.616C137.892 21.328 137.46 18.24 136.596 16.352C135.764 14.432 134.692 13.472 133.38 13.472Z" fill="#141414"/>
<path d="M174.94 4.01599V4.97599C173.852 5.00799 173.02 5.13599 172.444 5.35999C171.9 5.55199 171.532 5.93599 171.34 6.51199C171.148 7.05599 171.052 7.91998 171.052 9.10398V33.488C171.052 34.48 171.116 35.216 171.244 35.696C171.404 36.176 171.692 36.496 172.108 36.656C172.556 36.816 173.212 36.896 174.076 36.896H176.428C177.516 36.896 178.54 36.64 179.5 36.128C180.46 35.616 181.324 34.896 182.092 33.968C182.86 33.008 183.5 31.872 184.012 30.56C184.524 29.248 184.908 27.792 185.164 26.192H186.268C186.172 27.28 186.124 28.688 186.124 30.416C186.124 31.152 186.14 32.224 186.172 33.632C186.204 35.04 186.3 36.496 186.46 38C184.828 37.936 182.988 37.904 180.94 37.904C178.892 37.872 177.068 37.856 175.468 37.856C174.668 37.856 173.644 37.856 172.396 37.856C171.148 37.856 169.804 37.872 168.364 37.904C166.924 37.904 165.468 37.92 163.996 37.952C162.524 37.952 161.132 37.968 159.82 38V37.04C160.844 36.976 161.612 36.848 162.124 36.656C162.636 36.464 162.972 36.08 163.132 35.504C163.324 34.928 163.42 34.064 163.42 32.912V9.10398C163.42 7.91998 163.324 7.05599 163.132 6.51199C162.972 5.93599 162.62 5.55199 162.076 5.35999C161.564 5.13599 160.812 5.00799 159.82 4.97599V4.01599C160.62 4.04799 161.692 4.07999 163.036 4.11199C164.412 4.14399 165.868 4.15999 167.404 4.15999C168.812 4.15999 170.188 4.14399 171.532 4.11199C172.908 4.07999 174.044 4.04799 174.94 4.01599Z" fill="#141414"/>
<path d="M201.067 12.512C203.403 12.512 205.451 12.944 207.211 13.808C208.971 14.672 210.347 16.064 211.339 17.984C212.331 19.904 212.827 22.448 212.827 25.616C212.827 28.784 212.331 31.328 211.339 33.248C210.347 35.136 208.971 36.512 207.211 37.376C205.451 38.24 203.403 38.672 201.067 38.672C198.795 38.672 196.763 38.24 194.971 37.376C193.211 36.512 191.819 35.136 190.795 33.248C189.803 31.328 189.307 28.784 189.307 25.616C189.307 22.448 189.803 19.904 190.795 17.984C191.819 16.064 193.211 14.672 194.971 13.808C196.763 12.944 198.795 12.512 201.067 12.512ZM201.067 13.472C199.787 13.472 198.715 14.432 197.851 16.352C196.987 18.24 196.555 21.328 196.555 25.616C196.555 29.904 196.987 32.992 197.851 34.88C198.715 36.768 199.787 37.712 201.067 37.712C202.379 37.712 203.451 36.768 204.283 34.88C205.147 32.992 205.579 29.904 205.579 25.616C205.579 21.328 205.147 18.24 204.283 16.352C203.451 14.432 202.379 13.472 201.067 13.472Z" fill="#141414"/>
<path d="M225.616 12.656V41.936C225.616 43.44 226 44.432 226.768 44.912C227.536 45.424 228.592 45.68 229.936 45.68V46.688C229.104 46.656 227.952 46.608 226.48 46.544C225.04 46.512 223.504 46.496 221.872 46.496C220.688 46.496 219.52 46.512 218.368 46.544C217.248 46.608 216.4 46.656 215.824 46.688V45.68C216.88 45.68 217.616 45.456 218.032 45.008C218.48 44.56 218.704 43.696 218.704 42.416V18.416C218.704 16.976 218.48 15.92 218.032 15.248C217.584 14.544 216.784 14.192 215.632 14.192V13.184C216.656 13.28 217.648 13.328 218.608 13.328C219.92 13.328 221.168 13.28 222.352 13.184C223.536 13.056 224.624 12.88 225.616 12.656ZM233.056 12.512C234.688 12.512 236.144 12.96 237.424 13.856C238.704 14.72 239.728 16.048 240.496 17.84C241.264 19.6 241.648 21.808 241.648 24.464C241.648 26.8 241.376 28.848 240.832 30.608C240.32 32.368 239.568 33.856 238.576 35.072C237.616 36.256 236.448 37.152 235.072 37.76C233.728 38.368 232.208 38.672 230.512 38.672C229.264 38.672 228.128 38.448 227.104 38C226.08 37.584 225.296 36.976 224.752 36.176L225.232 35.552C225.552 36.128 226 36.576 226.576 36.896C227.184 37.216 227.872 37.376 228.64 37.376C230.08 37.376 231.216 36.896 232.048 35.936C232.88 34.944 233.472 33.568 233.824 31.808C234.208 30.016 234.4 27.888 234.4 25.424C234.4 22.672 234.224 20.512 233.872 18.944C233.52 17.376 233.04 16.256 232.432 15.584C231.824 14.912 231.088 14.576 230.224 14.576C229.072 14.576 228.016 15.024 227.056 15.92C226.128 16.816 225.6 18.096 225.472 19.76L225.232 18.08C225.808 16.256 226.784 14.88 228.16 13.952C229.568 12.992 231.2 12.512 233.056 12.512Z" fill="#141414"/>
<path d="M256.989 12.512C259.805 12.512 262.013 13.344 263.613 15.008C265.213 16.672 266.013 19.392 266.013 23.168H250.221L250.125 22.256H259.965C259.997 20.688 259.901 19.248 259.677 17.936C259.453 16.592 259.101 15.52 258.621 14.72C258.141 13.92 257.501 13.52 256.701 13.52C255.581 13.52 254.621 14.224 253.821 15.632C253.053 17.04 252.589 19.376 252.429 22.64L252.573 22.928C252.541 23.312 252.509 23.712 252.477 24.128C252.477 24.544 252.477 24.976 252.477 25.424C252.477 27.632 252.781 29.424 253.389 30.8C254.029 32.176 254.829 33.184 255.789 33.824C256.749 34.432 257.725 34.736 258.717 34.736C259.389 34.736 260.077 34.64 260.781 34.448C261.517 34.224 262.253 33.84 262.989 33.296C263.725 32.72 264.413 31.92 265.053 30.896L265.917 31.184C265.533 32.4 264.925 33.584 264.093 34.736C263.261 35.888 262.205 36.832 260.925 37.568C259.645 38.304 258.109 38.672 256.317 38.672C254.141 38.672 252.221 38.208 250.557 37.28C248.893 36.352 247.581 34.944 246.621 33.056C245.693 31.168 245.229 28.768 245.229 25.856C245.229 22.88 245.725 20.4 246.717 18.416C247.741 16.432 249.133 14.96 250.893 14C252.685 13.008 254.717 12.512 256.989 12.512Z" fill="#141414"/>
<path d="M278.297 12.512C279.641 12.512 280.809 12.688 281.801 13.04C282.825 13.36 283.561 13.68 284.009 14C285.097 14.736 285.769 14.256 286.025 12.56H287.033C286.969 13.456 286.921 14.56 286.889 15.872C286.857 17.152 286.841 18.864 286.841 21.008H285.833C285.673 19.824 285.369 18.656 284.921 17.504C284.473 16.352 283.817 15.408 282.953 14.672C282.121 13.936 281.033 13.568 279.689 13.568C278.761 13.568 277.977 13.84 277.337 14.384C276.697 14.896 276.377 15.648 276.377 16.64C276.377 17.6 276.665 18.448 277.241 19.184C277.817 19.888 278.553 20.576 279.449 21.248C280.377 21.888 281.337 22.576 282.329 23.312C283.385 24.112 284.345 24.912 285.209 25.712C286.073 26.48 286.761 27.328 287.273 28.256C287.785 29.184 288.041 30.288 288.041 31.568C288.041 33.008 287.625 34.272 286.793 35.36C285.961 36.416 284.857 37.232 283.481 37.808C282.137 38.384 280.633 38.672 278.969 38.672C278.009 38.672 277.145 38.576 276.377 38.384C275.641 38.192 275.001 37.952 274.457 37.664C274.041 37.472 273.641 37.296 273.257 37.136C272.905 36.944 272.569 36.784 272.249 36.656C271.929 36.56 271.641 36.672 271.385 36.992C271.161 37.312 270.985 37.76 270.857 38.336H269.849C269.913 37.312 269.961 36.064 269.993 34.592C270.025 33.12 270.041 31.168 270.041 28.736H271.049C271.241 30.464 271.593 32 272.105 33.344C272.617 34.656 273.305 35.696 274.169 36.464C275.065 37.2 276.185 37.568 277.529 37.568C278.073 37.568 278.601 37.456 279.113 37.232C279.625 37.008 280.041 36.64 280.361 36.128C280.713 35.616 280.889 34.96 280.889 34.16C280.889 32.752 280.425 31.584 279.497 30.656C278.601 29.728 277.449 28.72 276.041 27.632C275.017 26.8 274.041 25.984 273.113 25.184C272.217 24.352 271.481 23.456 270.905 22.496C270.329 21.504 270.041 20.384 270.041 19.136C270.041 17.696 270.425 16.48 271.193 15.488C271.961 14.496 272.969 13.76 274.217 13.28C275.497 12.768 276.857 12.512 278.297 12.512Z" fill="#141414"/>
</svg>
